<?xml version="1.0" encoding="UTF-8"?>
<svg id="Layer_2" data-name="Layer 2" xmlns="http://www.w3.org/2000/svg" viewBox="0 0 32.74 40.99">
  <defs>
    <style>
      .cls-1 {
        fill: none;
        stroke: #000;
        stroke-linecap: round;
        stroke-linejoin: round;
      }
    </style>
  </defs>
  <g id="Layer_2-2" data-name="Layer 2">
    <g>
      <g>
        <circle cx="3.97" cy="39.64" r=".89"/>
        <circle cx=".63" cy="31.39" r=".63"/>
        <circle cx="16.1" cy="39.01" r=".63"/>
      </g>
      <g>
        <circle cx="22.92" cy="9.97" r=".67"/>
        <circle cx="21.74" cy="1.44" r=".47"/>
        <circle cx="30.41" cy="9.57" r=".47"/>
      </g>
      <g>
        <g>
          <path class="cls-1" d="M32.24,35.15c0,2.95-2.46,5.34-5.48,5.34s-5.48-2.39-5.48-5.34,2.46-12.06,5.48-12.06,5.48,9.11,5.48,12.06Z"/>
          <path class="cls-1" d="M29.94,30.08c0,1.71-1.42,3.1-3.18,3.1s-3.18-1.39-3.18-3.1,1.42-6.99,3.18-6.99,3.18,5.28,3.18,6.99Z"/>
          <ellipse class="cls-1" cx="26.76" cy="21.01" rx="2.63" ry="1.82"/>
          <ellipse class="cls-1" cx="26.76" cy="16.31" rx="1.82" ry="2.63"/>
          <path class="cls-1" d="M28.88,7.04c-.54-1.31-1.87-2.01-2.98-1.55-.56.23-.96.71-1.15,1.31-.27.86.11,1.79.8,2.38.46.4,1.03,1.06,1.34,2.02.37,1.2.11,2.18.01,2.48"/>
        </g>
        <g>
          <path class="cls-1" d="M18.08,30.3c0,2.95-2.46,5.34-5.48,5.34s-5.48-2.39-5.48-5.34,2.46-12.06,5.48-12.06,5.48,9.11,5.48,12.06Z"/>
          <path class="cls-1" d="M15.77,25.24c0,1.71-1.42,3.1-3.18,3.1s-3.18-1.39-3.18-3.1,1.42-6.99,3.18-6.99,3.18,5.28,3.18,6.99Z"/>
          <ellipse class="cls-1" cx="12.59" cy="16.16" rx="2.63" ry="1.82"/>
          <ellipse class="cls-1" cx="12.59" cy="11.46" rx="1.82" ry="2.63"/>
          <path class="cls-1" d="M14.72,2.19c-.54-1.31-1.87-2.01-2.98-1.55-.56.23-.96.71-1.15,1.31-.27.86.11,1.79.8,2.38.46.4,1.03,1.06,1.34,2.02.37,1.2.11,2.18.01,2.48"/>
        </g>
      </g>
    </g>
  </g>
</svg>