<svg width="20" height="20" viewBox="0 0 20 20" fill="none" xmlns="http://www.w3.org/2000/svg">
<path d="M10.0001 5.83333H6.25008C5.69755 5.83333 5.16764 5.61384 4.77694 5.22314C4.38624 4.83244 4.16675 4.30254 4.16675 3.75C4.16675 3.19747 4.38624 2.66756 4.77694 2.27686C5.16764 1.88616 5.69755 1.66667 6.25008 1.66667C9.16675 1.66667 10.0001 5.83333 10.0001 5.83333ZM10.0001 5.83333H13.7501C14.3026 5.83333 14.8325 5.61384 15.2232 5.22314C15.6139 4.83244 15.8334 4.30254 15.8334 3.75C15.8334 3.19747 15.6139 2.66756 15.2232 2.27686C14.8325 1.88616 14.3026 1.66667 13.7501 1.66667C10.8334 1.66667 10.0001 5.83333 10.0001 5.83333ZM10.0001 5.83333L10.0001 18.3333M1.66675 11.6667H18.3334M1.66675 8.5L1.66675 15.6667C1.66675 16.6001 1.66675 17.0668 1.8484 17.4233C2.00819 17.7369 2.26316 17.9919 2.57676 18.1517C2.93328 18.3333 3.39999 18.3333 4.33341 18.3333L15.6667 18.3333C16.6002 18.3333 17.0669 18.3333 17.4234 18.1517C17.737 17.9919 17.992 17.7369 18.1518 17.4233C18.3334 17.0668 18.3334 16.6001 18.3334 15.6667V8.5C18.3334 7.56658 18.3334 7.09987 18.1518 6.74335C17.992 6.42975 17.737 6.17478 17.4234 6.01499C17.0669 5.83334 16.6002 5.83334 15.6667 5.83334L4.33342 5.83334C3.39999 5.83334 2.93328 5.83333 2.57676 6.01499C2.26316 6.17478 2.00819 6.42975 1.8484 6.74335C1.66675 7.09987 1.66675 7.56658 1.66675 8.5Z" stroke="#070202" stroke-linecap="round" stroke-linejoin="round"/>
</svg>
