<?xml version="1.0" encoding="UTF-8"?>
<svg id="Layer_2" data-name="Layer 2" xmlns="http://www.w3.org/2000/svg" viewBox="0 0 41.4 34.03">
  <defs>
    <style>
      .cls-1 {
        fill: none;
        stroke: #000;
        stroke-linecap: round;
        stroke-linejoin: round;
      }
    </style>
  </defs>
  <g id="Layer_2-2" data-name="Layer 2">
    <g>
      <line class="cls-1" x1="26.26" y1="33.53" x2="28.86" y2="26.22"/>
      <g>
        <polygon class="cls-1" points=".5 28.75 16.1 29.57 26.15 15.94 22.91 11.01 11.93 9.4 2.32 21.65 .5 28.75"/>
        <polyline class="cls-1" points="2.27 21.79 14.15 22.5 14.3 22.3 22.91 11.01"/>
        <line class="cls-1" x1="16.1" y1="29.57" x2="14.15" y2="22.5"/>
        <polyline class="cls-1" points="24.43 13.31 30.52 11.62 38.95 23.92 40.9 30.47 26.26 33.53 19.91 25.25"/>
        <polyline class="cls-1" points="23.89 19.02 28.86 26.22 38.95 23.92"/>
        <g>
          <line class="cls-1" x1="15.33" y1="4.71" x2="17.74" y2="7.13"/>
          <line class="cls-1" x1="22.75" y1=".5" x2="22.75" y2="5.2"/>
          <line class="cls-1" x1="30.5" y1="3.78" x2="27.17" y2="7.11"/>
        </g>
      </g>
    </g>
  </g>
</svg>