<svg width="20" height="20" viewBox="0 0 20 20" fill="none" xmlns="http://www.w3.org/2000/svg">
<path fill-rule="evenodd" clip-rule="evenodd" d="M17.9662 5.71401C18.243 4.39444 17.4126 3.19463 16.1079 3.19463H12.5493C11.6401 3.23462 10.4146 2.47485 10.4146 2.47485V8.51349C10.4146 14.6319 13.7357 17.2313 15.2774 17.4712C15.5542 17.5913 15.752 17.5113 15.3963 17.2313C13.3005 15.8717 12.0749 12.6323 11.9564 9.87299V4.35451C12.3914 4.63427 13.2215 4.67426 13.2215 4.67426H16.3847C17.2151 4.67426 17.6501 4.95423 17.9662 5.71401ZM2.03198 5.71401C1.75517 4.39444 2.62533 3.19463 3.89036 3.19463H7.44909C8.39785 3.23462 9.58408 2.47485 9.58408 2.47485V8.51349C9.58408 14.6319 6.26266 17.2313 4.72076 17.4712C4.44396 17.5913 4.24638 17.5113 4.60227 17.2313C6.69771 15.8717 7.92347 12.6323 8.04183 9.87299V4.35451C7.6072 4.63427 6.77673 4.67426 6.77673 4.67426H3.6531C2.82291 4.67426 2.388 4.95423 2.03198 5.71401Z" fill="#070202"/>
</svg>
