<?xml version="1.0" encoding="UTF-8"?>
<svg id="Layer_2" data-name="Layer 2" xmlns="http://www.w3.org/2000/svg" viewBox="0 0 35.35 34.54">
  <defs>
    <style>
      .cls-1 {
        fill: none;
        stroke: #000;
        stroke-linejoin: round;
      }
    </style>
  </defs>
  <g id="Layer_2-2" data-name="Layer 2">
    <g>
      <g>
        <g>
          <path d="M24.69,22.42c-1.68.55-6.54.83-6.74-1.57.12-1.56,1.39-2.69,2.46-3.69.79-.66,1.66-1.31,2.73-1.42,4.04-.37,5.37,5.25,1.55,6.69h0ZM24.41,21.74c1.61-.71,2.06-2.89.98-4.22-1.2-1.53-3.26-1.11-4.65.06-1.1.81-3.71,3.11-1.83,4.3,1.65.77,3.85.45,5.5-.14h0Z"/>
          <path d="M19,27.99c-1.01-1.45-2.71-6.01-.46-6.91,1.52-.34,2.98.55,4.25,1.27.86.56,1.74,1.2,2.16,2.2,1.54,3.75-3.45,6.67-5.94,3.44h0ZM19.57,27.53c1.15,1.33,3.36,1.13,4.32-.3,1.11-1.6.11-3.44-1.42-4.43-1.1-.82-4.06-2.64-4.65-.49-.25,1.81.69,3.82,1.74,5.22h0Z"/>
          <path d="M12.01,24.19c1.09-1.39,4.96-4.35,6.47-2.46.77,1.36.35,3.01.03,4.43-.29.99-.64,2.01-1.47,2.71-3.14,2.57-7.39-1.35-5.03-4.68h0ZM12.61,24.6c-.94,1.49-.1,3.55,1.55,4.05,1.85.59,3.32-.9,3.82-2.65.46-1.29,1.34-4.65-.89-4.59-1.8.29-3.45,1.78-4.48,3.19h0Z"/>
          <path d="M13.6,16.39c1.65.63,5.61,3.47,4.25,5.47-1.07,1.14-2.77,1.21-4.23,1.32-1.03.01-2.11-.03-3.02-.61-3.37-2.25-.87-7.46,3-6.17h0ZM13.39,17.09c-1.7-.46-3.42.95-3.42,2.66-.03,1.95,1.83,2.91,3.66,2.88,1.37.06,4.84-.08,4.13-2.19-.8-1.64-2.71-2.78-4.36-3.35h0Z"/>
          <path d="M21.53,15.63c-.12,1.76-1.68,6.38-3.98,5.66-1.4-.69-1.97-2.3-2.5-3.66-.31-.98-.59-2.03-.3-3.07,1.17-3.88,6.88-3.01,6.78,1.07h0ZM20.8,15.63c-.05-1.76-1.9-2.99-3.55-2.49-1.87.54-2.25,2.61-1.69,4.34.34,1.33,1.5,4.61,3.3,3.3,1.33-1.25,1.86-3.4,1.93-5.15h0Z"/>
        </g>
        <ellipse class="cls-1" cx="18.07" cy="10.72" rx="1.68" ry="1.89"/>
        <path d="M35.35.52c-.14,3.94-3.41,6.74-6.71,8.28-7.89,3.52-19.21,3.14-25.62-3.16C1.76,4.27.85,2.47.79.52.78.24.99,0,1.27,0c.28,0,.52.22.52.5-.02,1.66.69,3.3,1.81,4.61,6.06,6.27,17.18,6.66,24.76,3.1,3.01-1.46,6.02-4.16,5.99-7.7-.02-.67,1.02-.68,1,0h0Z"/>
      </g>
      <g>
        <circle cx="5.49" cy="33.65" r=".89"/>
        <circle cx=".63" cy="26.53" r=".63"/>
        <circle cx="32.5" cy="28.38" r=".63"/>
        <circle cx="18.07" cy="21.45" r=".89"/>
      </g>
    </g>
  </g>
</svg>