<svg width="20" height="20" viewBox="0 0 20 20" fill="none" xmlns="http://www.w3.org/2000/svg">
<rect width="20" height="20" fill="white"/>
<mask id="path-1-inside-1_2347_52702" fill="white">
<path d="M8.97458 14.206C8.9379 14.206 8.89715 14.2019 8.85639 14.1897C8.6404 14.1245 8.51813 13.9004 8.58334 13.6844C8.673 13.3828 8.71783 13.069 8.71783 12.7511C8.71783 11.1495 7.52373 9.75973 5.94247 9.52743C5.71832 9.49483 5.56753 9.28698 5.60013 9.06284C5.63273 8.83869 5.84058 8.6879 6.06473 8.7205C8.04538 9.01393 9.53699 10.746 9.53699 12.7511C9.53699 13.1464 9.47993 13.5417 9.36582 13.9167C9.31284 14.0919 9.14982 14.206 8.97458 14.206Z"/>
</mask>
<path d="M8.97458 14.206C8.9379 14.206 8.89715 14.2019 8.85639 14.1897C8.6404 14.1245 8.51813 13.9004 8.58334 13.6844C8.673 13.3828 8.71783 13.069 8.71783 12.7511C8.71783 11.1495 7.52373 9.75973 5.94247 9.52743C5.71832 9.49483 5.56753 9.28698 5.60013 9.06284C5.63273 8.83869 5.84058 8.6879 6.06473 8.7205C8.04538 9.01393 9.53699 10.746 9.53699 12.7511C9.53699 13.1464 9.47993 13.5417 9.36582 13.9167C9.31284 14.0919 9.14982 14.206 8.97458 14.206Z" fill="#070202"/>
<path d="M8.85639 14.1897L8.56739 15.147L8.56905 15.1475L8.85639 14.1897ZM8.58334 13.6844L9.54068 13.9734L9.54188 13.9693L8.58334 13.6844ZM5.94247 9.52743L6.08781 8.53805L6.08641 8.53785L5.94247 9.52743ZM6.06473 8.7205L6.21128 7.73129L6.20867 7.73091L6.06473 8.7205ZM9.36582 13.9167L8.40915 13.6255L8.40861 13.6273L9.36582 13.9167ZM8.97458 13.206C9.00915 13.206 9.06922 13.2095 9.14374 13.2319L8.56905 15.1475C8.72508 15.1944 8.86665 15.206 8.97458 15.206V13.206ZM9.1454 13.2324C9.45018 13.3244 9.63746 13.6527 9.54067 13.9734L7.62601 13.3954C7.39881 14.148 7.83062 14.9246 8.56739 15.147L9.1454 13.2324ZM9.54188 13.9693C9.65967 13.5731 9.71783 13.1632 9.71783 12.7511H7.71783C7.71783 12.9748 7.68633 13.1925 7.6248 13.3994L9.54188 13.9693ZM9.71783 12.7511C9.71783 10.6568 8.16335 8.84296 6.08781 8.53805L5.79712 10.5168C6.88411 10.6765 7.71783 11.6422 7.71783 12.7511H9.71783ZM6.08641 8.53785C6.42404 8.58696 6.63437 8.89977 6.58972 9.20678L4.61054 8.9189C4.50068 9.6742 5.01259 10.4027 5.79853 10.517L6.08641 8.53785ZM6.58972 9.20678C6.54061 9.54441 6.2278 9.75474 5.92079 9.71009L6.20867 7.73091C5.45336 7.62105 4.72486 8.13296 4.61054 8.9189L6.58972 9.20678ZM5.91818 9.7097C7.40713 9.93029 8.53699 11.2403 8.53699 12.7511H10.537C10.537 10.2517 8.68364 8.09757 6.21128 7.7313L5.91818 9.7097ZM8.53699 12.7511C8.53699 13.0512 8.49355 13.3482 8.40915 13.6255L10.3225 14.2078C10.4663 13.7353 10.537 13.2416 10.537 12.7511H8.53699ZM8.40861 13.6273C8.48767 13.3658 8.72467 13.206 8.97458 13.206V15.206C9.57498 15.206 10.138 14.8181 10.323 14.2061L8.40861 13.6273Z" fill="#070202" mask="url(#path-1-inside-1_2347_52702)"/>
<mask id="path-3-inside-2_2347_52702" fill="white">
<path d="M5.49829 16.8224C5.20078 16.8224 4.90328 16.7898 4.60984 16.7205C3.55023 16.476 2.64957 15.8239 2.07493 14.8784C0.901209 12.9589 1.46769 10.4281 3.33424 9.23396C3.77031 8.95275 4.25121 8.76528 4.76471 8.67563C4.92773 8.64302 5.09074 8.72046 5.1804 8.85902C5.27006 8.99758 5.26599 9.1769 5.16818 9.31139C4.39792 10.3995 4.35309 11.8463 5.05407 12.9915C5.75096 14.1326 7.03065 14.7195 8.31848 14.4953C8.47742 14.4627 8.64452 14.5402 8.73417 14.6787C8.82383 14.8173 8.81976 14.9966 8.72195 15.1311C8.42037 15.559 8.04135 15.9217 7.60528 16.1989C6.96544 16.6105 6.23594 16.8183 5.49829 16.8183V16.8224ZM4.00668 9.78822C3.92517 9.82897 3.84774 9.8738 3.77438 9.92271C2.2787 10.8764 1.83041 12.91 2.77183 14.4546C3.23235 15.2085 3.94963 15.7302 4.79324 15.9258C5.6124 16.1173 6.45601 15.9706 7.16921 15.5142C7.2548 15.4612 7.33223 15.4042 7.40966 15.343C6.17481 15.2289 5.04184 14.5361 4.36124 13.4194C3.68065 12.3068 3.56654 10.966 4.00668 9.78822Z"/>
</mask>
<path d="M5.49829 16.8224C5.20078 16.8224 4.90328 16.7898 4.60984 16.7205C3.55023 16.476 2.64957 15.8239 2.07493 14.8784C0.901209 12.9589 1.46769 10.4281 3.33424 9.23396C3.77031 8.95275 4.25121 8.76528 4.76471 8.67563C4.92773 8.64302 5.09074 8.72046 5.1804 8.85902C5.27006 8.99758 5.26599 9.1769 5.16818 9.31139C4.39792 10.3995 4.35309 11.8463 5.05407 12.9915C5.75096 14.1326 7.03065 14.7195 8.31848 14.4953C8.47742 14.4627 8.64452 14.5402 8.73417 14.6787C8.82383 14.8173 8.81976 14.9966 8.72195 15.1311C8.42037 15.559 8.04135 15.9217 7.60528 16.1989C6.96544 16.6105 6.23594 16.8183 5.49829 16.8183V16.8224ZM4.00668 9.78822C3.92517 9.82897 3.84774 9.8738 3.77438 9.92271C2.2787 10.8764 1.83041 12.91 2.77183 14.4546C3.23235 15.2085 3.94963 15.7302 4.79324 15.9258C5.6124 16.1173 6.45601 15.9706 7.16921 15.5142C7.2548 15.4612 7.33223 15.4042 7.40966 15.343C6.17481 15.2289 5.04184 14.5361 4.36124 13.4194C3.68065 12.3068 3.56654 10.966 4.00668 9.78822Z" fill="#070202"/>
<path d="M5.49829 16.8224V17.8224H6.49829V16.8224H5.49829ZM4.60984 16.7205L4.83964 15.7473L4.8347 15.7461L4.60984 16.7205ZM2.07493 14.8784L2.92949 14.3591L2.92808 14.3568L2.07493 14.8784ZM3.33424 9.23396L3.87314 10.0763L3.87618 10.0744L3.33424 9.23396ZM4.76471 8.67563L4.93671 9.66072L4.9488 9.65861L4.96083 9.65621L4.76471 8.67563ZM5.16818 9.31139L4.35938 8.72317L4.35197 8.73363L5.16818 9.31139ZM5.05407 12.9915L5.9075 12.4703L5.90697 12.4694L5.05407 12.9915ZM8.31848 14.4953L8.48995 15.4805L8.50473 15.4779L8.51942 15.4749L8.31848 14.4953ZM8.72195 15.1311L7.91321 14.5429L7.90883 14.5489L7.90455 14.555L8.72195 15.1311ZM7.60528 16.1989L7.06891 15.3549L7.06425 15.3579L7.60528 16.1989ZM5.49829 16.8183V15.8183H4.49829V16.8183H5.49829ZM4.00668 9.78822L4.94341 10.1383L5.83336 7.75685L3.55947 8.89379L4.00668 9.78822ZM3.77438 9.92271L4.312 10.7659L4.3206 10.7604L4.32908 10.7548L3.77438 9.92271ZM2.77183 14.4546L1.91793 14.975L1.91843 14.9758L2.77183 14.4546ZM4.79324 15.9258L5.02093 14.9521L5.01913 14.9517L4.79324 15.9258ZM7.16921 15.5142L6.64286 14.6639L6.63648 14.6679L6.63016 14.6719L7.16921 15.5142ZM7.40966 15.343L8.02931 16.1279L9.99315 14.5775L7.50168 14.3473L7.40966 15.343ZM4.36124 13.4194L5.21514 12.899L5.21429 12.8976L4.36124 13.4194ZM5.49829 15.8224C5.27406 15.8224 5.05388 15.7979 4.83964 15.7473L4.38005 17.6938C4.75267 17.7817 5.1275 17.8224 5.49829 17.8224V15.8224ZM4.8347 15.7461C4.04084 15.5629 3.36579 15.0769 2.92949 14.3591L1.22038 15.3978C1.93334 16.5709 3.05963 17.3891 4.38499 17.6949L4.8347 15.7461ZM2.92808 14.3568C2.03178 12.8909 2.47566 10.9703 3.87313 10.0763L2.79534 8.39159C0.459728 9.88577 -0.229364 13.0269 1.22178 15.4001L2.92808 14.3568ZM3.87618 10.0744C4.19896 9.86623 4.55391 9.72756 4.93671 9.66072L4.59271 7.69053C3.94851 7.80301 3.34165 8.03928 2.79229 8.39355L3.87618 10.0744ZM4.96083 9.65621C4.68449 9.71147 4.45274 9.57521 4.34083 9.40227L6.01997 8.31577C5.72875 7.8657 5.17096 7.57457 4.56859 7.69504L4.96083 9.65621ZM4.34083 9.40227C4.20709 9.19557 4.21262 8.9251 4.35944 8.72322L5.97691 9.89956C6.31935 9.42871 6.33304 8.7996 6.01997 8.31577L4.34083 9.40227ZM4.35197 8.73363C3.34855 10.1512 3.29345 12.0306 4.20116 13.5136L5.90697 12.4694C5.41274 11.662 5.44729 10.6479 5.98438 9.88915L4.35197 8.73363ZM4.20063 13.5127C5.10637 14.9958 6.78797 15.7768 8.48995 15.4805L8.14701 13.5101C7.27332 13.6622 6.39556 13.2695 5.9075 12.4703L4.20063 13.5127ZM8.51942 15.4749C8.23787 15.5327 8.0076 15.3966 7.8946 15.222L9.57374 14.1355C9.28144 13.6837 8.71697 13.3928 8.11754 13.5157L8.51942 15.4749ZM7.8946 15.222C7.76086 15.0153 7.76639 14.7448 7.91321 14.5429L9.53068 15.7193C9.87312 15.2484 9.88681 14.6193 9.57374 14.1355L7.8946 15.222ZM7.90455 14.555C7.67697 14.8779 7.39286 15.149 7.06892 15.3549L8.14165 17.0428C8.68984 16.6945 9.16376 16.2401 9.53935 15.7072L7.90455 14.555ZM7.06425 15.3579C6.58814 15.6641 6.04692 15.8183 5.49829 15.8183V17.8183C6.42496 17.8183 7.34274 17.5568 8.14631 17.0399L7.06425 15.3579ZM4.49829 16.8183V16.8224H6.49829V16.8183H4.49829ZM3.55947 8.89379C3.44211 8.95247 3.32868 9.01799 3.21968 9.09065L4.32908 10.7548C4.36681 10.7296 4.40823 10.7055 4.4539 10.6826L3.55947 8.89379ZM3.23676 9.07952C1.26574 10.3362 0.703359 12.9823 1.91793 14.975L3.62572 13.9341C2.95745 12.8377 3.29167 11.4165 4.312 10.7659L3.23676 9.07952ZM1.91843 14.9758C2.51591 15.954 3.4568 16.6424 4.56735 16.9L5.01913 14.9517C4.44246 14.8179 3.94879 14.463 3.62522 13.9333L1.91843 14.9758ZM4.56555 16.8995C5.65024 17.1532 6.77003 16.9569 7.70826 16.3565L6.63016 14.6719C6.14199 14.9843 5.57456 15.0815 5.02093 14.9521L4.56555 16.8995ZM7.69557 16.3645C7.82509 16.2843 7.93515 16.2022 8.02931 16.1279L6.79002 14.5581C6.7293 14.6061 6.6845 14.6381 6.64286 14.6639L7.69557 16.3645ZM7.50168 14.3473C6.58363 14.2624 5.73223 13.7474 5.21514 12.899L3.50735 13.9399C4.35145 15.3248 5.76599 16.1954 7.31764 16.3388L7.50168 14.3473ZM5.21429 12.8976C4.69547 12.0494 4.61002 11.0304 4.94341 10.1383L3.06995 9.43816C2.52305 10.9016 2.66583 12.5642 3.50819 13.9412L5.21429 12.8976Z" fill="#070202" mask="url(#path-3-inside-2_2347_52702)"/>
<path d="M5.82139 8.66452L5.76009 9.0598L6.55064 9.1824L6.61194 8.78713L5.82139 8.66452ZM5.07415 6.07961L5.33912 5.77995L5.07415 6.07961ZM4.75416 3.88153L5.02925 4.17192L5.02928 4.1719L4.75416 3.88153ZM6.83728 4.44361L6.46535 4.59082L6.83728 4.44361ZM8.80536 7.00274C9.0262 6.9971 9.20065 6.8135 9.19501 6.59265C9.18937 6.37181 9.00577 6.19736 8.78492 6.203L8.80536 7.00274ZM6.61194 8.78713C6.70449 8.19033 6.54624 6.84734 5.33912 5.77995L4.80918 6.37926C5.78704 7.24392 5.87758 8.30218 5.82139 8.66452L6.61194 8.78713ZM5.33912 5.77995C4.8631 5.35904 4.76533 5.00041 4.77354 4.75554C4.78239 4.49156 4.91686 4.27839 5.02925 4.17192L4.47907 3.59114C4.24291 3.81486 3.99113 4.21772 3.97399 4.72872C3.95621 5.25883 4.1927 5.83415 4.80918 6.37926L5.33912 5.77995ZM5.02928 4.1719C5.13851 4.06841 5.42409 3.95289 5.73753 3.99026C6.01613 4.02348 6.30099 4.17556 6.46535 4.59082L7.20921 4.2964C6.92854 3.5873 6.37992 3.26119 5.83225 3.19589C5.31943 3.13474 4.78597 3.30037 4.47905 3.59117L5.02928 4.1719ZM6.46535 4.59082C6.52833 4.74993 6.57449 4.94184 6.65079 5.20645C6.7217 5.45236 6.8136 5.73846 6.96002 6.00562C7.10865 6.2768 7.31934 6.53972 7.63264 6.72861C7.94702 6.91815 8.33426 7.01478 8.80536 7.00274L8.78492 6.203C8.4373 6.21188 8.20666 6.14054 8.04569 6.04349C7.88365 5.9458 7.76153 5.80351 7.66157 5.62113C7.55941 5.43473 7.48698 5.21891 7.41948 4.98481C7.35737 4.76942 7.29107 4.50323 7.20921 4.2964L6.46535 4.59082Z" fill="#070202"/>
<mask id="path-6-inside-3_2347_52702" fill="white">
<path d="M17.9746 14.206C17.9379 14.206 17.8971 14.2019 17.8564 14.1897C17.6404 14.1245 17.5181 13.9004 17.5833 13.6844C17.673 13.3828 17.7178 13.069 17.7178 12.7511C17.7178 11.1495 16.5237 9.75973 14.9425 9.52743C14.7183 9.49483 14.5675 9.28698 14.6001 9.06284C14.6327 8.83869 14.8406 8.6879 15.0647 8.7205C17.0454 9.01393 18.537 10.746 18.537 12.7511C18.537 13.1464 18.4799 13.5417 18.3658 13.9167C18.3128 14.0919 18.1498 14.206 17.9746 14.206Z"/>
</mask>
<path d="M17.9746 14.206C17.9379 14.206 17.8971 14.2019 17.8564 14.1897C17.6404 14.1245 17.5181 13.9004 17.5833 13.6844C17.673 13.3828 17.7178 13.069 17.7178 12.7511C17.7178 11.1495 16.5237 9.75973 14.9425 9.52743C14.7183 9.49483 14.5675 9.28698 14.6001 9.06284C14.6327 8.83869 14.8406 8.6879 15.0647 8.7205C17.0454 9.01393 18.537 10.746 18.537 12.7511C18.537 13.1464 18.4799 13.5417 18.3658 13.9167C18.3128 14.0919 18.1498 14.206 17.9746 14.206Z" fill="#070202"/>
<path d="M17.8564 14.1897L17.5674 15.147L17.569 15.1475L17.8564 14.1897ZM17.5833 13.6844L18.5407 13.9734L18.5419 13.9693L17.5833 13.6844ZM14.9425 9.52743L15.0878 8.53805L15.0864 8.53785L14.9425 9.52743ZM15.0647 8.7205L15.2113 7.73129L15.2087 7.73091L15.0647 8.7205ZM18.3658 13.9167L17.4091 13.6255L17.4086 13.6273L18.3658 13.9167ZM17.9746 13.206C18.0092 13.206 18.0692 13.2095 18.1437 13.2319L17.569 15.1475C17.7251 15.1944 17.8667 15.206 17.9746 15.206V13.206ZM18.1454 13.2324C18.4502 13.3244 18.6375 13.6527 18.5407 13.9734L16.626 13.3954C16.3988 14.148 16.8306 14.9246 17.5674 15.147L18.1454 13.2324ZM18.5419 13.9693C18.6597 13.5731 18.7178 13.1632 18.7178 12.7511H16.7178C16.7178 12.9748 16.6863 13.1925 16.6248 13.3994L18.5419 13.9693ZM18.7178 12.7511C18.7178 10.6568 17.1634 8.84296 15.0878 8.53805L14.7971 10.5168C15.8841 10.6765 16.7178 11.6422 16.7178 12.7511H18.7178ZM15.0864 8.53785C15.424 8.58696 15.6344 8.89977 15.5897 9.20678L13.6105 8.9189C13.5007 9.6742 14.0126 10.4027 14.7985 10.517L15.0864 8.53785ZM15.5897 9.20678C15.5406 9.54441 15.2278 9.75474 14.9208 9.71009L15.2087 7.73091C14.4534 7.62105 13.7249 8.13296 13.6105 8.9189L15.5897 9.20678ZM14.9182 9.7097C16.4071 9.93029 17.537 11.2403 17.537 12.7511H19.537C19.537 10.2517 17.6836 8.09757 15.2113 7.7313L14.9182 9.7097ZM17.537 12.7511C17.537 13.0512 17.4935 13.3482 17.4091 13.6255L19.3225 14.2078C19.4663 13.7353 19.537 13.2416 19.537 12.7511H17.537ZM17.4086 13.6273C17.4877 13.3658 17.7247 13.206 17.9746 13.206V15.206C18.575 15.206 19.138 14.8181 19.323 14.2061L17.4086 13.6273Z" fill="#070202" mask="url(#path-6-inside-3_2347_52702)"/>
<mask id="path-8-inside-4_2347_52702" fill="white">
<path d="M14.4983 16.8224C14.2008 16.8224 13.9033 16.7898 13.6098 16.7205C12.5502 16.476 11.6496 15.8239 11.0749 14.8784C9.90121 12.9589 10.4677 10.4281 12.3342 9.23396C12.7703 8.95275 13.2512 8.76528 13.7647 8.67563C13.9277 8.64302 14.0907 8.72046 14.1804 8.85902C14.2701 8.99758 14.266 9.1769 14.1682 9.31139C13.3979 10.3995 13.3531 11.8463 14.0541 12.9915C14.751 14.1326 16.0306 14.7195 17.3185 14.4953C17.4774 14.4627 17.6445 14.5402 17.7342 14.6787C17.8238 14.8173 17.8198 14.9966 17.7219 15.1311C17.4204 15.559 17.0414 15.9217 16.6053 16.1989C15.9654 16.6105 15.2359 16.8183 14.4983 16.8183V16.8224ZM13.0067 9.78822C12.9252 9.82897 12.8477 9.8738 12.7744 9.92271C11.2787 10.8764 10.8304 12.91 11.7718 14.4546C12.2324 15.2085 12.9496 15.7302 13.7932 15.9258C14.6124 16.1173 15.456 15.9706 16.1692 15.5142C16.2548 15.4612 16.3322 15.4042 16.4097 15.343C15.1748 15.2289 14.0418 14.5361 13.3612 13.4194C12.6806 12.3068 12.5665 10.966 13.0067 9.78822Z"/>
</mask>
<path d="M14.4983 16.8224C14.2008 16.8224 13.9033 16.7898 13.6098 16.7205C12.5502 16.476 11.6496 15.8239 11.0749 14.8784C9.90121 12.9589 10.4677 10.4281 12.3342 9.23396C12.7703 8.95275 13.2512 8.76528 13.7647 8.67563C13.9277 8.64302 14.0907 8.72046 14.1804 8.85902C14.2701 8.99758 14.266 9.1769 14.1682 9.31139C13.3979 10.3995 13.3531 11.8463 14.0541 12.9915C14.751 14.1326 16.0306 14.7195 17.3185 14.4953C17.4774 14.4627 17.6445 14.5402 17.7342 14.6787C17.8238 14.8173 17.8198 14.9966 17.7219 15.1311C17.4204 15.559 17.0414 15.9217 16.6053 16.1989C15.9654 16.6105 15.2359 16.8183 14.4983 16.8183V16.8224ZM13.0067 9.78822C12.9252 9.82897 12.8477 9.8738 12.7744 9.92271C11.2787 10.8764 10.8304 12.91 11.7718 14.4546C12.2324 15.2085 12.9496 15.7302 13.7932 15.9258C14.6124 16.1173 15.456 15.9706 16.1692 15.5142C16.2548 15.4612 16.3322 15.4042 16.4097 15.343C15.1748 15.2289 14.0418 14.5361 13.3612 13.4194C12.6806 12.3068 12.5665 10.966 13.0067 9.78822Z" fill="#070202"/>
<path d="M14.4983 16.8224V17.8224H15.4983V16.8224H14.4983ZM13.6098 16.7205L13.8396 15.7473L13.8347 15.7461L13.6098 16.7205ZM11.0749 14.8784L11.9295 14.3591L11.9281 14.3568L11.0749 14.8784ZM12.3342 9.23396L12.8731 10.0763L12.8762 10.0744L12.3342 9.23396ZM13.7647 8.67563L13.9367 9.66072L13.9488 9.65861L13.9608 9.65621L13.7647 8.67563ZM14.1682 9.31139L13.3594 8.72317L13.352 8.73363L14.1682 9.31139ZM14.0541 12.9915L14.9075 12.4703L14.907 12.4694L14.0541 12.9915ZM17.3185 14.4953L17.49 15.4805L17.5047 15.4779L17.5194 15.4749L17.3185 14.4953ZM17.7219 15.1311L16.9132 14.5429L16.9088 14.5489L16.9045 14.555L17.7219 15.1311ZM16.6053 16.1989L16.0689 15.3549L16.0643 15.3579L16.6053 16.1989ZM14.4983 16.8183V15.8183H13.4983V16.8183H14.4983ZM13.0067 9.78822L13.9434 10.1383L14.8334 7.75685L12.5595 8.89379L13.0067 9.78822ZM12.7744 9.92271L13.312 10.7659L13.3206 10.7604L13.3291 10.7548L12.7744 9.92271ZM11.7718 14.4546L10.9179 14.975L10.9184 14.9758L11.7718 14.4546ZM13.7932 15.9258L14.0209 14.9521L14.0191 14.9517L13.7932 15.9258ZM16.1692 15.5142L15.6429 14.6639L15.6365 14.6679L15.6302 14.6719L16.1692 15.5142ZM16.4097 15.343L17.0293 16.1279L18.9932 14.5775L16.5017 14.3473L16.4097 15.343ZM13.3612 13.4194L14.2151 12.899L14.2143 12.8976L13.3612 13.4194ZM14.4983 15.8224C14.2741 15.8224 14.0539 15.7979 13.8396 15.7473L13.3801 17.6938C13.7527 17.7817 14.1275 17.8224 14.4983 17.8224V15.8224ZM13.8347 15.7461C13.0408 15.5629 12.3658 15.0769 11.9295 14.3591L10.2204 15.3978C10.9333 16.5709 12.0596 17.3891 13.385 17.6949L13.8347 15.7461ZM11.9281 14.3568C11.0318 12.8909 11.4757 10.9703 12.8731 10.0763L11.7953 8.39159C9.45973 9.88577 8.77064 13.0269 10.2218 15.4001L11.9281 14.3568ZM12.8762 10.0744C13.199 9.86623 13.5539 9.72756 13.9367 9.66072L13.5927 7.69053C12.9485 7.80301 12.3417 8.03928 11.7923 8.39355L12.8762 10.0744ZM13.9608 9.65621C13.6845 9.71147 13.4527 9.57521 13.3408 9.40227L15.02 8.31577C14.7288 7.8657 14.171 7.57457 13.5686 7.69504L13.9608 9.65621ZM13.3408 9.40227C13.2071 9.19557 13.2126 8.9251 13.3594 8.72322L14.9769 9.89956C15.3194 9.42871 15.333 8.7996 15.02 8.31577L13.3408 9.40227ZM13.352 8.73363C12.3486 10.1512 12.2934 12.0306 13.2012 13.5136L14.907 12.4694C14.4127 11.662 14.4473 10.6479 14.9844 9.88915L13.352 8.73363ZM13.2006 13.5127C14.1064 14.9958 15.788 15.7768 17.49 15.4805L17.147 13.5101C16.2733 13.6622 15.3956 13.2695 14.9075 12.4703L13.2006 13.5127ZM17.5194 15.4749C17.2379 15.5327 17.0076 15.3966 16.8946 15.222L18.5737 14.1355C18.2814 13.6837 17.717 13.3928 17.1175 13.5157L17.5194 15.4749ZM16.8946 15.222C16.7609 15.0153 16.7664 14.7448 16.9132 14.5429L18.5307 15.7193C18.8731 15.2484 18.8868 14.6193 18.5737 14.1355L16.8946 15.222ZM16.9045 14.555C16.677 14.8779 16.3929 15.149 16.0689 15.3549L17.1416 17.0428C17.6898 16.6945 18.1638 16.2401 18.5393 15.7072L16.9045 14.555ZM16.0643 15.3579C15.5881 15.6641 15.0469 15.8183 14.4983 15.8183V17.8183C15.425 17.8183 16.3427 17.5568 17.1463 17.0399L16.0643 15.3579ZM13.4983 16.8183V16.8224H15.4983V16.8183H13.4983ZM12.5595 8.89379C12.4421 8.95247 12.3287 9.01799 12.2197 9.09065L13.3291 10.7548C13.3668 10.7296 13.4082 10.7055 13.4539 10.6826L12.5595 8.89379ZM12.2368 9.07952C10.2657 10.3362 9.70336 12.9823 10.9179 14.975L12.6257 13.9341C11.9575 12.8377 12.2917 11.4165 13.312 10.7659L12.2368 9.07952ZM10.9184 14.9758C11.5159 15.954 12.4568 16.6424 13.5673 16.9L14.0191 14.9517C13.4425 14.8179 12.9488 14.463 12.6252 13.9333L10.9184 14.9758ZM13.5655 16.8995C14.6502 17.1532 15.77 16.9569 16.7083 16.3565L15.6302 14.6719C15.142 14.9843 14.5746 15.0815 14.0209 14.9521L13.5655 16.8995ZM16.6956 16.3645C16.8251 16.2843 16.9352 16.2022 17.0293 16.1279L15.79 14.5581C15.7293 14.6061 15.6845 14.6381 15.6429 14.6639L16.6956 16.3645ZM16.5017 14.3473C15.5836 14.2624 14.7322 13.7474 14.2151 12.899L12.5073 13.9399C13.3514 15.3248 14.766 16.1954 16.3176 16.3388L16.5017 14.3473ZM14.2143 12.8976C13.6955 12.0494 13.61 11.0304 13.9434 10.1383L12.07 9.43816C11.523 10.9016 11.6658 12.5642 12.5082 13.9412L14.2143 12.8976Z" fill="#070202" mask="url(#path-8-inside-4_2347_52702)"/>
<path d="M14.8214 8.66452L14.7601 9.0598L15.5506 9.1824L15.6119 8.78713L14.8214 8.66452ZM14.0741 6.07961L14.3391 5.77995L14.0741 6.07961ZM13.7542 3.88153L14.0293 4.17192L14.0293 4.1719L13.7542 3.88153ZM15.8373 4.44361L15.4654 4.59082L15.8373 4.44361ZM17.8054 7.00274C18.0262 6.9971 18.2007 6.8135 18.195 6.59265C18.1894 6.37181 18.0058 6.19736 17.7849 6.203L17.8054 7.00274ZM15.6119 8.78713C15.7045 8.19033 15.5462 6.84734 14.3391 5.77995L13.8092 6.37926C14.787 7.24392 14.8776 8.30218 14.8214 8.66452L15.6119 8.78713ZM14.3391 5.77995C13.8631 5.35904 13.7653 5.00041 13.7735 4.75554C13.7824 4.49156 13.9169 4.27839 14.0293 4.17192L13.4791 3.59114C13.2429 3.81486 12.9911 4.21772 12.974 4.72872C12.9562 5.25883 13.1927 5.83415 13.8092 6.37926L14.3391 5.77995ZM14.0293 4.1719C14.1385 4.06841 14.4241 3.95289 14.7375 3.99026C15.0161 4.02348 15.301 4.17556 15.4654 4.59082L16.2092 4.2964C15.9285 3.5873 15.3799 3.26119 14.8323 3.19589C14.3194 3.13474 13.786 3.30037 13.479 3.59117L14.0293 4.1719ZM15.4654 4.59082C15.5283 4.74993 15.5745 4.94184 15.6508 5.20645C15.7217 5.45236 15.8136 5.73846 15.96 6.00562C16.1086 6.2768 16.3193 6.53972 16.6326 6.72861C16.947 6.91815 17.3343 7.01478 17.8054 7.00274L17.7849 6.203C17.4373 6.21188 17.2067 6.14054 17.0457 6.04349C16.8836 5.9458 16.7615 5.80351 16.6616 5.62113C16.5594 5.43473 16.487 5.21891 16.4195 4.98481C16.3574 4.76942 16.2911 4.50323 16.2092 4.2964L15.4654 4.59082Z" fill="#070202"/>
</svg>
