<svg version="1.2" xmlns="http://www.w3.org/2000/svg" viewBox="0 0 21 20" width="21" height="20">
	<title>diamond-02 (1)</title>
	<style>
		.s0 { fill: none;stroke: #070202;stroke-linecap: round;stroke-linejoin: round;stroke-width: .5 } 
	</style>
	<path class="s0" d="m3.7 21.3h13.6m-6.2-3.5l8.6-9.5c0.2-0.2 0.2-0.3 0.3-0.4q0-0.1 0-0.2c0-0.1-0.1-0.2-0.3-0.4l-4.1-5c-0.1-0.1-0.2-0.2-0.2-0.2q-0.1-0.1-0.2-0.1c0 0-0.1 0-0.2 0h-9c-0.1 0-0.2 0-0.2 0q-0.1 0-0.2 0.1c0 0-0.1 0.1-0.2 0.2l-4.1 5c-0.2 0.2-0.3 0.3-0.3 0.4q0 0.1 0 0.2c0.1 0.1 0.1 0.2 0.3 0.4l8.6 9.5c0.2 0.2 0.3 0.3 0.4 0.4q0.2 0 0.4 0c0.1-0.1 0.2-0.2 0.4-0.4zm-2.5-15.8l-2 5.8 3.9 10.1 3.9-10.1-2-5.8m-11.1 5.8h18.4"/>
</svg>