<svg width="231" height="79" viewBox="0 0 231 79" fill="none" xmlns="http://www.w3.org/2000/svg">
<path d="M57.5992 44.1409V27.0706C55.7752 30.4104 52.8568 33.0081 49.9384 35.2347C46.6552 37.8323 43.7368 40.43 42.2776 43.7699L57.5992 44.1409ZM41.548 46.7386C40.4536 48.223 39.3592 51.934 40.8184 55.6449H34.2521C33.8873 54.9027 33.8873 53.7894 33.5225 53.0472V51.1918C33.8873 45.9964 37.5352 41.1722 41.9128 36.719C44.8312 33.7503 47.3848 31.5237 49.9384 29.2971C52.8568 26.3284 56.14 23.3596 59.4231 17.7932C60.5175 16.3088 61.6119 16.6799 61.6119 16.6799V56.016H57.5992V47.1097H41.548V46.7386Z" fill="white"/>
<path d="M24.7724 50.2172L28.0556 22.3851C29.15 18.6741 29.5148 16.8186 34.2572 12.7366C30.974 12.3655 29.5148 14.221 26.5964 14.221H5.4381C1.06052 13.8499 -0.0338753 17.5608 0.695722 19.0452C1.42532 17.5608 2.15491 17.5608 3.24931 17.5608H23.678C23.678 17.5608 21.1244 20.5296 20.7596 24.2405C20.7596 24.2405 18.5709 48.3617 18.9356 55.7836C19.3004 70.9986 30.6092 78.7916 35.7164 78.4205C27.326 70.6275 24.0428 61.3501 24.7724 50.2172Z" fill="white"/>
<path d="M95.533 44.0997C93.709 38.9044 86.0482 32.9669 86.0482 32.9669C80.2114 27.7715 76.1987 20.7207 75.4691 17.3809L73.2803 16.6387V55.9748H76.5635V29.2559C78.3875 34.4512 87.1426 41.131 87.1426 41.131C87.1426 41.131 93.709 46.6974 96.9922 54.8615L99.181 55.9748V17.0098H95.533V44.0997Z" fill="white"/>
<path d="M114.501 0C111.582 0 109.394 2.22656 109.394 5.19533C109.394 7.79299 111.582 10.0196 114.501 10.0196C117.054 10.0196 119.243 7.79299 119.243 5.19533C119.243 2.22656 116.69 0 114.501 0Z" fill="white"/>
<path d="M214.827 51.9689C215.192 52.34 215.556 52.7111 216.286 53.0822C219.934 50.4845 221.758 48.258 223.217 44.1759C225.771 37.4962 225.771 32.3009 221.758 25.6212C219.934 22.6524 217.38 20.0547 214.827 18.1992C214.097 17.4571 213.368 17.086 212.638 16.3438C209.72 18.5703 206.801 21.9102 205.342 26.3633C204.248 30.4454 204.612 36.3829 206.801 41.2072C209.355 46.0314 211.544 49.0002 214.827 51.9689ZM214.827 60.5041C210.084 55.6799 205.707 51.5978 202.059 44.547C200.6 41.5783 199.87 38.2384 199.87 35.2696V34.5274C199.87 30.8165 200.6 27.8477 202.059 24.879C204.612 19.3125 208.625 15.9727 213.732 11.8906C213.732 12.2617 214.097 12.6328 214.462 13.375C217.016 15.9727 225.041 21.9102 228.324 27.4766C229.784 30.4454 230.513 33.0431 230.513 36.0118V36.754C230.513 40.8361 229.054 44.547 227.23 47.1447C224.676 50.4845 221.758 53.8244 218.84 56.4221C220.664 58.6486 223.582 60.8752 224.676 63.1018C226.5 66.4417 227.23 68.6682 226.136 73.4924C226.136 74.2346 224.312 78.3167 222.488 78.3167C224.676 71.637 218.11 64.2151 214.827 60.5041Z" fill="white"/>
<path d="M185.619 40.4591H171.391V16.709H166.284V54.1896H171.391V43.7989H185.619V54.5607H191.09V16.709H185.619V40.4591Z" fill="white"/>
<path d="M149.188 33.9987C143.716 31.4011 139.704 29.5456 135.326 26.5768C133.502 24.7213 133.502 21.3815 135.326 19.8971C137.515 18.4127 141.163 18.4127 143.352 19.8971C145.54 21.3815 146.27 22.8659 148.094 24.7213C149.553 25.8346 150.648 26.2057 152.107 25.8346C151.377 23.237 149.918 21.0104 147.729 19.1549C142.622 14.7018 134.232 15.8151 130.948 19.1549C127.3 23.237 128.395 27.319 132.043 30.6589C136.42 34.7409 143.352 36.2253 149.188 42.1628C152.107 44.7605 152.472 48.8425 148.824 51.4402C146.27 52.9246 141.528 53.2957 137.515 52.1824C134.596 50.698 133.502 49.9558 131.678 46.9871C130.584 45.1316 129.489 43.6472 126.206 43.6472C126.936 48.4714 130.584 52.5535 135.326 54.409C141.528 56.6355 148.459 56.2644 153.931 52.5535C160.132 47.7293 158.673 39.1941 149.188 33.9987Z" fill="white"/>
<path d="M116.708 16.709H111.601V55.3029H116.708V16.709Z" fill="white"/>
</svg>
